<?xml version="1.0" encoding="utf-8"?>
<!-- Generator: Adobe Illustrator 24.2.1, SVG Export Plug-In . SVG Version: 6.00 Build 0)  -->
<svg version="1.1" id="Layer_1" xmlns="http://www.w3.org/2000/svg" xmlns:xlink="http://www.w3.org/1999/xlink" x="0px" y="0px"
	 viewBox="0 0 200 200" style="enable-background:new 0 0 200 200;" xml:space="preserve">
<style type="text/css">
	.st0{fill:none;}
	.st1{fill:none;stroke:#000000;stroke-width:0.5;}
	.st2{fill:none;stroke:#000000;}
	.st3{fill:none;stroke:#000000;stroke-width:2;}
</style>
<rect class="st0" width="200" height="200"/>
<g>
	<path class="st1" d="M45.03,21.92L45.03,21.92 M45.03,21.92L45.03,21.92 M45.25,28.31c0.56-2.09,2.54-3.42,5.23-5.77 M45.03,28.21
		c1.69-2.04,4.16-4.56,5.05-6.28 M44.04,33.7c5.49-4.49,9.19-7.47,10.06-12.17 M44.53,33.26c4.15-3.85,7.73-8.44,10.52-11.13
		 M46.82,41.87c4.83-5.34,8.13-11.65,15.28-18.89 M44.11,40.94C51.32,33.22,57,26.6,60.1,21.82 M46.34,45.08
		C53.71,36.71,58.13,30,64.35,22.83 M47.85,43.31c4.47-5.14,7.21-10.16,18.96-21.75 M49.28,48.54c8.89-9.48,14.54-17.42,23.82-27.81
		 M49.33,46.52c6.78-7.94,14.1-14.18,21.3-24.31 M53.24,48.54C63.16,38,69.64,31.63,74.32,24 M54.79,46.76
		c6.23-4.51,10.54-10.14,21.53-24.49 M61.56,47.4c5.82-9.31,15.08-21.34,21.04-25.95 M60.88,47.81C65.98,40,72.85,32.1,83.51,20.93
		 M64.25,47.24c4.74-5.76,12.31-10.17,21.36-22.78 M64.82,48.43c3.86-6.04,9.07-12.25,20.44-24.63 M69.39,46.15
		c7.19-3.9,14.35-10.54,16.4-16.44 M71.78,46.34c5.54-4.57,10.16-11.8,14.73-16.45 M75.04,46.6c5.55-4.94,8.43-6.78,11.7-9.74
		 M75.53,46.97c3.9-2.41,6.56-6.65,9.81-10.22"/>
	<path class="st2" d="M80.73,45.98c-10.59,1.17-21.44,0.22-34.43-2.75 M82.84,45.46c-13.33-0.12-24.04-1.12-35.41-0.02 M47.88,45
		c-1.56-1.07-2.82-2.05-4.16-3.05 M48.89,46.18c-1.39-3.1-4.06-2.93-5.94-2.91 M46.66,41.96c-2.8-4.23-3.73-8.71-1.74-17.08
		 M44.98,42.51c-0.62-5.42-1.11-12.2,0.26-19.05 M44.87,23.01c-0.69-1.5,1.73-2.66,4.87-2.43 M43.04,23.36
		c2.32-2.08,5.27-4.69,5.65-2.9 M49.39,21.8c8.72-2.36,18.27-1.47,32-0.92 M48.77,19.32c7.29,1.7,17.66,1.59,32.26-0.17 M81.86,20
		c2.29,0.53,2.86,0.9,3.95,3.45 M83.69,21.45c1.25-0.83,2.75,1.18,1.28,1.43 M84.87,23.13c1.8,5.32,1.74,12.97,0.24,17 M84.5,22.35
		c-0.5,6.01,0.61,9.63,0.62,19.35 M84.87,41.99c-1.27,3.56-1.87,1.98-1.79,4.53 M85.84,40c0.19,1.48-2.11,4.92-2.24,3.7 M81.87,45
		L81.87,45 M81.87,45L81.87,45"/>
</g>
<g>
	<path class="st1" d="M44.99,89.46L44.99,89.46 M44.99,89.46L44.99,89.46 M44.49,95.66c2.29-1.17,3.24-4.34,6.18-6.48 M44.93,95.5
		c1.66-1.7,3.02-4.02,5.35-5.52 M45.75,100.57c3.13-2.96,4.84-4.01,9.59-9.68 M45.29,101.24c3.04-3.99,8.01-9.05,10.22-12.46
		 M46.38,108.35c3.2-4.73,9.66-12.62,13.96-17.28 M45.29,108.48c5.62-6.14,9.73-11.77,16.24-18.73 M45.29,112.94
		c7.52-9.76,14.74-16.72,19.15-21.85 M46.64,110.41c7.11-6.76,13.82-15.33,20.33-21.08 M51.09,116.22
		c6.19-13.05,14.81-22.32,19.43-27.72 M50.48,114.63c6.92-9.08,13.79-15.9,20.19-24.92 M55.08,115.84
		c4.3-7.12,12.28-15.32,21.05-28.23 M55.55,114.03c4.36-6.48,11.88-14.6,21.8-25.36 M59.22,115.01
		c7.61-8.59,15.21-17.37,22.36-26.19 M59.56,114.73c7.07-8.14,15.56-17.05,23.22-26.23 M64.08,115.01
		c7.91-7.31,12.03-13.68,22.13-23.82 M66.01,115.32c3.77-4.46,7.69-10.94,19.38-23.94 M71.4,112.71
		c3.63-3.34,11.86-9.49,14.49-14.03 M70.23,114.39c3.67-4.27,7.6-10,15.97-16.35 M74.35,113.97c4.14-3.24,8.25-4.82,10.73-10.03
		 M76.28,114.23c2.58-1.02,4.82-3.77,9.46-10.03"/>
	<path class="st2" d="M81.65,111.19c-12.42,1.4-22.07,2.17-34.69-0.63 M81.86,113.14c-13.06,0.36-26.64-0.88-34.89-0.52
		 M47.87,112.5c-1.55,1.76-1.43-2.16-1.02-1.84 M46.07,113.3c1.5-1.96,0.91-1.25-1.89-4.71 M43.74,109.17
		c2.15-3.88-0.97-7.03,0.49-20.16 M44.66,110.21c-0.69-5.2-0.94-9.46-0.44-20.64 M44.87,90.5c-1.77-0.31,0.68-4.29,1.98-1.45
		 M43.37,89.9c3.03-1.71,2.66-2.98,3.59-4.19 M49.61,88.44c7.26-0.21,15.63-1.71,33.93-0.95 M47.07,87.98
		c9.24-1.01,18.57,0.09,34.61,0.05 M81.87,87.5c1.49-1.05,2.07,2.66,2.16,2.79 M81.85,85.68c2.3,3.29,3.69,4.95,1.55,6.59
		 M84.59,89.61c0.73,6.57,0.57,10.87,1.89,21.01 M85.78,90.59c-0.9,4-0.65,8.23-0.35,18.7 M84.87,109.5
		c-0.04,1.78-3.19,3.73-3.23,3.77 M84.53,109.24c-1.37,3.76-2.14,1.74-3.04,1.5 M81.87,112.5L81.87,112.5 M81.87,112.5L81.87,112.5"
		/>
</g>
<g>
	<path class="st1" d="M125.48,89.2L125.48,89.2 M125.48,89.2L125.48,89.2 M124.73,96c2.46-2.05,3.21-3.48,5.39-6.27 M125.45,95.94
		c0.7-2.03,1.87-2.75,4.99-6.28 M126.29,101.71c0.95-3.08,3.35-7.78,8.36-12.58 M125.06,101.98c2.05-3.13,5.65-6.43,10.01-11.56
		 M125.97,109.32c6.32-8.98,10.74-12.68,14.19-19.33 M124.75,107.16c4.81-5.8,10.16-11.96,15.79-18.38 M125.18,112.91
		c7.78-3.83,8.2-10.42,19.15-22.4 M126.47,112.42c5.4-8.36,13.12-15.71,18.69-21.96 M128.27,113.8
		c6.33-7.03,13.99-12.34,21.56-23.28 M130.64,113.56c6.38-6.63,12.51-12.25,20.36-24.13 M133.97,116.55
		c5.37-6.22,11-11.89,22.83-25.79 M134.74,114.43c4.13-4.76,8.8-10.69,22-23.74 M138.29,116.31c8.19-6.28,12.2-14.4,25.31-26.87
		 M139.11,115.06c6.76-5.43,11.56-11.03,25.22-26.8 M147.05,113.51c4.96-3.46,7.12-9.07,20.09-23.38 M144.91,114.39
		c6.05-5.89,12.87-13.71,20.48-23.4 M150.18,113.69c8.02-4.6,13.18-12.68,15.6-16.39 M149.81,115.02
		c5.86-7.35,11.63-13.15,15.54-16.38 M156.28,115.26c3.27-2.13,4.57-6.6,10.73-10.86 M156.45,115.35c1.61-3.49,4.31-6.62,10.3-11.82
		"/>
	<path class="st2" d="M163.62,111.26c-9.7,2.08-17.92,2.43-33.6,1.59 M161.88,113.27c-10.81-1.82-22.85-1.6-33.68-0.07
		 M128.13,112.5c-0.04,1.03-4.23,0.01-1.29-3.72 M127.37,111.69c-0.51-0.25-4.39,1.54-2.42-2.47 M125.33,109.82
		c-0.11-6.45-1.05-10.28,0.81-19.96 M124.82,109.19c-0.65-5.44,0.24-9.68,0.14-18.91 M125.13,90.5c-1.05-1.35-0.32-3.33,1.14-4.56
		 M123.38,91.88c0.07-2.08,3.73-2.59,3.39-3.46 M127.38,89.29c10.34-2.59,16.61-0.61,33.81-2.44 M127.75,87.38
		c13.98,0.57,27.16-0.88,35.03-0.32 M162.13,87.5c3.66-0.67,1.05,2.19,2.62,4.28 M163.64,87.5c-0.62-0.83,3.77-0.28,1.35,5.09
		 M164.54,90.39c0.27,7.49,1.88,12.63,2.4,19.85 M165.97,90.64c-0.17,4.84-1.62,10.3,0.1,18.16 M165.13,109.5
		c-1.45,2.1-1.27,1.51-2.19,1.38 M164.06,109.91c0.13,1.6-2.36,0.67-0.14,4.81 M162.13,112.5L162.13,112.5 M162.13,112.5
		L162.13,112.5"/>
</g>
<g>
	<path class="st1" d="M85.6,156.56L85.6,156.56 M85.6,156.56L85.6,156.56 M85.53,163.05c1.64-2.75,3.55-3.93,5.11-5.52
		 M85.44,163.24c1.36-1.82,2.7-3.16,5.26-6.35 M85.77,169.21c0.73-4.34,5.35-7.35,9.99-11.37 M85.78,169.99
		c1.47-2.96,3.46-6.59,10.54-12.4 M85.28,174.87c6.44-7.82,11.09-12.17,15.81-17.59 M85.23,174.94c4.77-6.09,9.09-10.38,16.1-18.9
		 M88.18,180.02c7.12-7.87,11.94-16.07,19.83-22.76 M87.1,179.84c3.95-7.23,7.9-12.33,18.2-21.81 M88.05,182.49
		c5.06-5.25,9.72-10.94,22.79-25.65 M89.87,183.5c6.37-5.95,10.72-11.38,22.28-26.66 M94.08,181.34
		c8.94-9.02,15.45-16.1,24.01-22.25 M95,182.5c6.43-6.62,12.6-12.9,22.79-25.52 M100.09,181.34c5.93-4.67,13.5-14.06,23.33-27.77
		 M99.49,182.09c6.19-6.79,12.2-10.95,24.66-26.59 M106.47,181.87c8.37-10.3,17.08-18.63,20.48-22.91 M104.92,182.45
		c9.15-8.38,14.75-15.16,22.04-24.28 M110.87,182.79c4.46-6.74,7.72-8,13.84-18.02 M111.3,183.44c3.99-5.91,9.18-11.11,13.6-19.13
		 M117.2,182.57c1.79-2.99,2.99-5.96,9.85-11.38 M116.73,181.63c3.28-3.18,6.94-7.79,9.13-10.96"/>
	<path class="st2" d="M123.18,179.94c-15.35-1.45-25.01-1.44-36.06-0.37 M122.1,180.54c-11.82,0.02-24.52,0.08-33.74-0.58
		 M88.13,180c-2.69,1.21-4.66-2.06-3.24-4.19 M88.47,179.42c-0.14-0.91-4.48,0.74-1.76-4.51 M83.96,176.5
		c0.44-2.51,1.77-7.29,0.75-16.95 M85.01,176.75c1.37-6.24,0.69-12.01-0.6-18.94 M85.13,158c-0.77-3.47,1.28-4.39,4.2-3.77
		 M85.12,157.84c0.21-3.14,1.82-4.76,1.02-2.53 M86.66,154.43c10.33,1.66,19.21-2.2,34.28,2.12 M87.25,154.71
		c11.88,0.28,24.97,0.48,34.3,0.88 M122.13,155c3.54,0.84,1.56,3.12,4.35,1.45 M122.41,156.95c1.09-0.79,0.64,1.03,1.26,0.96
		 M125.49,159.53c-1,1.54-0.18,8.54,1.28,15.91 M124.32,157.95c0.62,8.21,0.26,14.24,1.69,19.77 M125.13,177
		c1.97,1.24-2.13,3.14-4.24,2.34 M125.46,176.15c1.85,4.53-0.94,3.16-5.54,4.12 M122.13,180L122.13,180 M122.13,180L122.13,180"/>
</g>
<g>
	<path class="st2" d="M61.37,76.7c1.53,0.66,2.73,1.15,3.9,1.59 M61.3,76.5c1.44,0.51,2.58,0.79,3.92,1.65 M64.86,77.88
		c1.29-0.68,2.4-0.96,3.68-1.31 M64.96,78.01c1.12-0.32,2.09-0.65,3.96-1.39 M69.07,77.12c-1.58,0.97-2.76,2.6-3.5,8.45
		 M69.29,75.99c-1.1,2.54-2.48,4.99-4.36,9.63 M64.42,85.22c0.65-1.79-1.11-3.56-3.64-9.54 M65.03,84.91
		c-0.82-2.33-1.58-5.03-3.62-8.65"/>
</g>
<g>
	<path class="st2" d="M66.78,46.55c0.53,11.03-0.97,20.22-0.97,29.77 M65.74,47.34c-1.11,9.65-2.39,21.23-0.81,30.2"/>
</g>
<g>
	<path class="st2" d="M96.07,151.9c-4.66-0.22-8.68-3.34-11.31-5.19 M94.65,152.83c-2.92-1.86-5.44-3.39-8.35-5.78 M86.02,147.69
		c0.99-0.8,2.79-0.72,4.32-0.63 M85.56,147.31c2.14,0.13,3.7-0.2,4.88-0.66 M90.61,146.45c-0.04-1.05,0.54-2.09,1.96-4.33
		 M90.61,146.64c0.06-1.22,0.78-2.55,1.47-4.35 M91.88,141.77c2.05,4.01,1.58,8.35,2.62,10.12 M91.67,142.72
		c1.24,3.23,2.15,7.15,3.8,10.43"/>
</g>
<g>
	<path class="st2" d="M66.03,113.09c5.77,12.45,12.7,19.45,24.26,31.75 M65.49,113.93c5.96,8.34,11.52,15.9,24.29,31.89"/>
</g>
<g>
	<path class="st2" d="M115.09,152.71c1.17-1.87,2.96-3.09,8.48-5.11 M115.59,152.34c2.61-1.03,5.08-2.82,8.64-4.95 M124.67,147.81
		c-1.18-0.05-2.9-0.63-4.59-0.54 M124.62,147.45c-1.61-0.15-2.73-0.41-4.57-0.44 M120.05,147.25c-0.45-1.8-0.93-3.33-1.66-4.5
		 M119.81,146.95c-0.81-1.75-1.43-3.16-1.85-4.48 M117.63,143.11c-0.45,3.98-2.1,6.31-3.23,9.57 M117.72,142.53
		c-0.51,3.18-0.94,5.48-2.68,10.58"/>
</g>
<g>
	<path class="st2" d="M146.21,113.08c-5.18,9.18-11.26,18.59-27.08,34.79 M145.65,114.24c-9.9,12.06-19.68,25.16-25.64,31.79"/>
</g>
<g>
	<path class="st3" d="M30.58,11.41c42.63-1.17,88.6-2.59,150.54-1 M29.54,9.78c51.66,2.12,102.36,3.07,149.89,0.91 M179.58,10.81
		c0.62,37.2,0.03,77.31-1.07,177.29 M179.24,10.69c2.46,49.98,3.73,101.43,0.09,179.59 M179.01,188.76
		c-42.06,0.22-88.53-0.96-148.04,3.12 M179.22,189.45c-46.04,1.1-91.52,1.39-150.07,1.1 M30.67,189.51
		c0.08-46.24,0.27-94.01-0.48-178.14 M30.21,190.35c2.95-67.46,2.61-132.95-0.67-180.3"/>
</g>
<g>
	<path class="st3" d="M25.36,185.49c1.79-0.7,3.39-1.21,10.26-0.33 M25.24,185.04c2.23-0.27,4.3-0.41,9.1,0.34"/>
</g>
<g>
	<path class="st3" d="M24.32,174.36c3.55,1.17,8.39,1.25,11.12,0.33 M24.79,174.86c2.48,0.27,4.88-0.35,9.68-0.22"/>
</g>
<g>
	<path class="st3" d="M24.92,165.21c3.68-0.93,7.23,0.3,9.89-0.31 M25.56,164.86c2.27-0.12,4.87,0.03,8.76,0.1"/>
</g>
<g>
	<path class="st3" d="M25.67,155.88c3.29,0.14,6.64-0.13,9.8-0.43 M24.87,154.9c3.43,0.01,6.98,0.14,9.65-0.14"/>
</g>
<g>
	<path class="st3" d="M26.14,145.3c1.66-0.88,4.53-0.47,8.27-0.2 M25.52,144.88c3.12,0.61,7.42,0.23,9.48,0.1"/>
</g>
<g>
	<path class="st3" d="M25.45,135.9c3.78-1.58,6.71-1.15,8.76-0.74 M25.36,135.28c3.85-0.65,7.72-0.52,9.39,0.01"/>
</g>
<g>
	<path class="st3" d="M25.19,124.88c3.98,0.17,6.63,0.53,10.4,0.93 M25.33,124.98c2.12,0.27,4.34-0.07,9.31,0.3"/>
</g>
<g>
	<path class="st3" d="M24.68,115.28c2.59-1.29,6.05-1.16,10.55,0.18 M25.5,115.21c1.45-0.18,3.28,0.26,9.67-0.26"/>
</g>
<g>
	<path class="st3" d="M26.12,105.7c2.35-0.23,6.43-0.46,8.1-0.04 M24.99,105.45c2.34-0.53,4.39-0.54,9.47-0.3"/>
</g>
<g>
	<path class="st3" d="M25.93,94.71c1.41,0.71,4.18-0.3,9.64-0.1 M25.4,95.01c3.06-0.19,6.86,0,9.06-0.33"/>
</g>
<g>
	<path class="st3" d="M25.46,85.05c1.83-0.07,4.53-0.85,9.77,0.32 M25.17,85.06c2.34,0,5.56,0,9.93-0.15"/>
</g>
<g>
	<path class="st3" d="M24.72,75.17c4.04-0.06,5.66,0.21,9.29-1 M25,74.66c3.92,0.81,7.46-0.06,10.19,0.66"/>
</g>
<g>
	<path class="st3" d="M25.1,65.76c2.99-0.81,4.84-0.3,8.98-1.45 M25.62,64.83c2.59,0.52,6.11,0.16,9.27-0.13"/>
</g>
<g>
	<path class="st3" d="M24.76,54.35c3.38-0.13,6.18,0.79,9.08,1.36 M24.88,55.14c2.69,0.21,3.94-0.04,9.86-0.25"/>
</g>
<g>
	<path class="st3" d="M25.46,45.46c2.45,0.29,5.35,0.13,8.99,0.08 M24.97,45.11c3.03-0.54,5.88-0.28,9.55-0.2"/>
</g>
<g>
	<path class="st3" d="M25.91,34.32c2.25,1.16,3.72,1.86,8.34-0.01 M24.87,35.19c3.49-0.1,5.88,0.01,9.61,0.12"/>
</g>
<g>
	<path class="st3" d="M24.45,25.76c2.53-1.07,6.79-1.38,9.56-1.11 M25.16,25.34c3.46-0.16,6.52-0.44,9.57-0.58"/>
</g>
<g>
	<path class="st3" d="M25.74,14.85c2.26-0.81,7.49,0.43,8.21-0.06 M25.46,15.14c1.86,0.48,4.28,0.14,8.89-0.51"/>
</g>
</svg>
