<?xml version="1.0" encoding="utf-8"?>
<!-- Generator: Adobe Illustrator 24.2.1, SVG Export Plug-In . SVG Version: 6.00 Build 0)  -->
<svg version="1.1" id="Layer_1" xmlns="http://www.w3.org/2000/svg" xmlns:xlink="http://www.w3.org/1999/xlink" x="0px" y="0px"
	 viewBox="0 0 200 200" style="enable-background:new 0 0 200 200;" xml:space="preserve">
<style type="text/css">
	.st0{fill:none;stroke:#000000;stroke-width:1.5;stroke-miterlimit:10;}
	.st1{fill:none;}
	.st2{fill:none;stroke:#000000;stroke-width:2;stroke-miterlimit:10;}
	.st3{fill:none;stroke:#000000;stroke-width:0.5;}
	.st4{fill:none;stroke:#000000;}
</style>
<g>
	<g>
		<g>
			<path class="st0" d="M102.91,34.92 M102.91,52.92 M102.91,52.95l-0.6,0.16l-3.06-0.95l-0.87-2.77l-0.13-1.92l-0.41-2.16
				l-1.79-1.15l-1.14-0.12v0.02l1.14,0.13l1.8-0.99l0.68-2.21l-0.24-2.5l0.98-2.74l3.03-0.77l0.6,0.14"/>
		</g>
	</g>
</g>
<g>
	<g>
		<g>
			<path class="st0" d="M36.35,147.02 M36.35,165.02 M36.35,147.02l0.6-0.01l3.03,0.85l0.98,2.73l-0.23,2.5l0.62,2.26l1.86,1.14
				l1.14-0.12v-0.14l-1.14,0l-1.87,1.12L41,159.57l-0.08,1.92l-0.85,2.83l-3.11,0.84l-0.6-0.11"/>
		</g>
	</g>
</g>
<rect y="0" class="st1" width="200" height="200"/>
<line class="st2" x1="61.77" y1="40.58" x2="61.77" y2="42.87"/>
<line class="st2" x1="61.77" y1="45.13" x2="61.77" y2="47.42"/>
<line class="st2" x1="76.78" y1="65.58" x2="76.78" y2="67.87"/>
<line class="st2" x1="76.78" y1="70.13" x2="76.78" y2="72.42"/>
<line class="st2" x1="76.78" y1="90.58" x2="76.78" y2="92.87"/>
<line class="st2" x1="76.78" y1="95.13" x2="76.78" y2="97.42"/>
<path class="st3" d="M35.33,34L35.33,34 M35.33,34L35.33,34 M35.72,39.17c2.73-1.76,4-4.28,6-5.81 M35.95,39.9
	c1.37-2.69,3.78-4.53,5-6.5 M34.22,46.1c4-3.85,9.74-9.9,11.65-12.75 M35.87,45.46C40.4,41.32,43.68,36,46.72,33.8 M37.49,52
	c1.62-5.4,7.65-10.25,16-17.38 M35.05,52.62c6.1-6.22,8.84-10.46,16.38-18.55 M39.17,53.32c6-6.07,11.75-13,17.45-19.53
	 M41.49,51.43c3.23-3.34,5.08-6.23,14.3-16.28 M46.38,50.67c3.5-1.8,6-8,8.34-7.75 M46.49,51.58c3.14-2.63,6.3-6.93,8.81-10
	 M50.88,52.1c2.25-1.31,3.15-3,4.8-4.38 M51.49,52.33c1.63-1.89,3-3.68,3.9-4.65 M35.9,46.93c-0.34-3.38,1.49-7.88,5.42-14
	 M35.86,46.38c0.77-4.81,3.32-9.14,5.77-12.73 M37.49,52c-1.68-3,3.73-7.34,7.16-19.21 M35.4,51.66
	c3.37-5.66,6.92-10.54,11.27-18.48 M42.72,54c0.38-6.36,3.25-14.78,9.59-20.37 M40.72,51.1c3.28-3.86,4.52-7.9,10.19-16.62
	 M47.42,52.13c2-5.51,3.74-8.42,9.53-16.85 M47.03,50.8c1.91-5.24,5.67-11.09,9-15.4 M50.9,52.73c0.6-2.92,2.37-6.87,3.6-10.92
	 M51.06,51.59c1.68-2.98,3.14-6.08,4.38-9.27"/>
<path class="st3" d="M110.66,57.13L110.66,57.13 M110.66,57.13L110.66,57.13 M110.26,63.13c1.55-2.18,3.55-3.99,5.87-5.32
	 M110.49,63.51c1.48-2.1,3.2-4.02,5.12-5.73 M110.85,71.33c5.29-7.07,8.43-11.69,11.91-13.79 M109.49,70.73
	c3.24-4.89,7.17-9.29,11.67-13.05 M108.74,76.56c5.4-4.19,9.81-8.9,18.77-19.49 M110.07,76.22c5.16-6.59,11.45-12.46,17-17.89
	 M113.94,79c6.17-6.07,11.93-13.38,19.87-20.31 M111.6,79.35c6.18-4.36,11-10.87,19.71-22.61 M118.38,81.82
	c6-9.53,8.85-16.17,18.86-25.69 M117.01,79.74c6.91-6.74,13.43-13.87,19.54-21.34 M124.49,81.65c5.6-10.79,10.48-19.07,16.7-23.39
	 M123.1,79.88c6.66-5.88,11.44-12.36,19.72-22.27 M127.08,78.51c7.3-5.75,12.87-15.12,22.32-19.71 M127.8,79.66
	c2.56-4.53,7.26-9.89,19.22-21.62 M132.42,81.61c9.21-11.11,15.55-20.51,19.88-24.92 M134.18,80c5.71-5.93,10.68-13,17.45-21.88
	 M140.24,81.48c7.17-10.28,13.36-20.77,17.94-23.69 M137.79,80.19c6.12-7.35,12.11-14.12,20.66-22.65 M142.99,81
	c4.57-6.3,9.24-12.58,18.26-25.26 M143.63,79.2c4.76-5,8.19-9.16,20.13-20.76 M150.99,78.26c4.42-4.89,8.89-8.86,16.05-19
	 M149.83,80.54c5-5.77,10.15-12.42,18.68-23.49 M155.9,78.32c4.76-5.76,9.24-8.81,16.38-19.44 M153.94,79.81
	c4.8-5,9.34-11.51,20.14-22.23 M161.17,80.29c4.18-6.59,9-14.31,15.95-20 M160.12,80.44c8.15-9.12,13.76-17.71,18.38-21
	 M165.32,80.07c6-5,8.92-9.36,13.56-16 M165.57,79.51c3-5.26,8.13-10.42,12.5-15.1 M169.6,80.1c3-3,5.29-6.17,9-8.57 M170.39,79.8
	c2.86-2.49,5.33-5.4,7.33-8.62 M110.49,70.66c1.42-5.62,3.82-9.32,4.7-13.6 M109.71,70.36c1.64-3.66,4.14-7.23,5.41-13.11
	 M111.6,73.78c2.4-5.55,5.24-10.9,8.49-16 M109.82,75.38c4-4.83,5.35-8.89,11.8-18.4 M112.82,81.24
	c6.68-9.63,13.33-18.93,11.9-25.24 M111.49,78.88c5-5.79,10.2-10.83,14.11-22.17 M118.98,80.09c2.34-7.31,4.62-12.53,12-24.1
	 M117.38,79.8c3.11-4.65,6.8-10.35,15-23.42 M121.29,78.33c6.14-6,9.53-9.6,15.64-22.11 M122.77,80.09c3.74-6.89,5.77-10.7,14.58-23
	 M126.97,81.79c4.79-9.88,9-15.75,17.11-23.13 M128.15,80.91c5.53-10.47,10.55-18.21,14-24.83 M135.15,81.31
	c1.73-7.5,2.83-10.46,14.15-22.36 M132.54,80.43c7.73-9.27,12.5-19.84,14.35-22.45 M139.62,80.64c2.1-8.52,5.9-14.11,14.54-22.59
	 M138.16,79.05c4.56-3.81,6.25-8.86,14.39-20.88 M143.29,80.85c6.09-8.62,10.37-18.56,13.78-22.38 M143.21,79.82
	c5.87-8.22,11.07-15.31,15.11-22.95 M147.22,78.93c5.69-3.55,10.34-11,17.8-20.81 M148.19,80.39c4-4.79,6.65-9.38,14.69-22.59
	 M155.49,78.68c3.89-5.3,7.68-11.1,11.39-22.81 M155.12,79.66c2.37-4.94,6.07-9.84,13.05-22.83 M158.82,79.83
	c3.17-5,8.83-12.16,13.29-22.74 M159.58,79.09c6.45-7.53,10.42-15.21,14.43-21.37 M165.38,77.96c3.18-5.45,6.82-9.36,12.27-18.46
	 M165.85,80.5c3.9-7.7,9-15.2,11.36-20.46 M169.21,79.3c2.73-4.83,5.62-8.48,9.34-13.35 M170.71,79.42
	c1.29-3.15,3.73-7.16,7.88-13.89"/>
<path class="st3" d="M50.33,59L50.33,59 M50.33,59L50.33,59 M51.08,65.07c0.8-2.4,2.41-4.46,4.55-5.81 M50.56,64.8
	c1.51-2.21,3.3-4.23,5.31-6 M50.56,72.39c0.77-3.52,4.59-6.75,11.91-14.22 M50.27,70.59c4.13-4.78,7.76-8.78,10.77-11.66
	 M52.25,75.83c4.53-6.18,9.58-11.96,15.09-17.28 M50.7,77.21c4.89-6.47,10.51-13.41,16.27-17.7 M57.49,75.82
	c0.45-4.21,6.62-4.72,12.4-15.59 M56.49,76.73c4-3.42,8.67-9,13.19-15.51 M60.24,75.47c3.05-1.91,6.69-3.52,10.31-9 M60.95,76.65
	c3.53-3.59,6-7.78,9.2-10.25 M66.25,76.59c0.88-1.15,2.51-1.28,4-4 M66.5,76.77c1.44-1.38,2.78-2.86,4-4.43 M51.79,71.43
	c0.31-6.26,4.3-11.5,3.23-12.5 M50.85,71.36c1.72-3.71,2.94-8.25,5.31-13.38 M52.49,74.72c0.44-5.21,7.28-9.78,10.08-15.18
	 M51.83,75.75c2.14-5.75,5.06-11.18,8.66-16.14 M55.79,78.52c1.46-6.93,7.16-13.19,10.31-20.16 M55.78,77.92
	c3.32-7.24,5.9-12.87,11.36-19.59 M61.88,77.33c3.28-2.56,2.16-7,8.6-16.93 M61.49,76.14c2.19-3.45,5.26-6.43,8.07-15.44
	 M65.57,77.3c2.14-3.08,2.83-6.08,3.75-9.88 M66.06,76.73c0.97-3.42,2.42-6.68,4.31-9.68"/>
<path class="st3" d="M50.25,84.11L50.25,84.11 M50.25,84.11L50.25,84.11 M51.25,89.3c1.42-1,3.25-3.58,4.73-5.21 M50.8,89.89
	c1.64-2.13,3.45-4.14,5.39-6 M49.49,95.87c4.43-4.32,5.35-4.66,10-10.32 M50.35,95.64c2.79-1.29,5-4.16,10.71-11.71 M52.43,101.87
	c4.2-5.19,12.27-11.79,16-19.12 M51.09,102c5.57-7.87,11.58-15.61,15.75-18.67 M57.41,100.33c0.49-2.34,7.37-5.59,14.15-14.44
	 M56.49,101.45c3.52-3.9,7-8.53,13.35-16.78 M61.28,101.21c2.42-1.58,5.87-7.34,8.71-9.25 M61.49,101.72
	c1.66-2.86,4.66-4.63,8.89-10.62 M66.19,102c1.29-1.86,3-2.71,4.3-4.81 M66.69,101.95c1.38-1.28,2.55-2.77,3.45-4.43 M51.04,95.52
	c1.45-3.32,3.61-9.6,4.45-12.27 M50.72,96.18c1.84-4.93,3.11-8.18,4.78-12.67 M50.49,102.89c3-7.17,4.72-7.64,12.17-17.52
	 M51.49,101.47c2.06-5.89,4.95-11.46,8.59-16.53 M54.45,103.77c4.04-4.62,7.04-11.08,10.78-19.72 M55.13,102.77
	c2.71-4.89,5.2-9.19,10.74-18.18 M61.64,101.66c1.6-3.94,5.73-7.14,10.32-17.75 M60.87,102.65c3-4.85,5.27-10.84,8.63-16.5"/>
<path class="st4" d="M77.15,140.92c27.25-2.44,53.73-2.06,96.6,0.3 M76.82,140.57c21.84-0.72,43-0.26,99-0.74"/>
<path class="st4" d="M85.22,143.21c-1-8.17,0.62-19.86,0.85-35.64 M86.85,143.77c0.63-12.27,0.18-24.58-1.35-36.77"/>
<path class="st3" d="M91.32,115.24L91.32,115.24 M91.32,115.24L91.32,115.24 M91.64,122.1c1.44-3.49,3.54-4.79,4.6-6.76
	 M91.24,121.26c1.27-1.2,2.15-3.09,5.35-6 M92.35,127.83c2.79-6.72,8.36-9,9.67-13.74 M90.68,128c4-4.39,8.53-9.38,10.87-13.21
	 M90,132.65c5.82-5,11.17-13.47,13.87-14.22 M91.05,134.58c4.66-6.13,9.87-11.82,15.57-17 M91.5,139.08
	c2.26-5.86,7.23-7.34,14.59-15.56 M90.31,139.58c6.07-4.2,9.82-8.09,15-16.42 M93.31,144.38c5.4-4.75,5.47-8.49,11.76-13.92
	 M93.5,142.41c2.9-2.08,5.2-4.35,12.17-12.85 M99.67,141.74c2.16-2.03,3.99-4.4,5.42-7 M99.42,141.88c1.4-1.25,3-3,5.94-5.94"/>
<path class="st4" d="M92.32,115.2c2.13-0.87,6.87-0.18,12.2,1 M90.51,115.2c3.34,0.54,5.81,0.7,13.34,0.9 M102.04,113.96
	c3.23,7.1,2.8,14,0.31,27.53 M103.96,115.28c-0.88,10-0.32,19.92-0.89,24.28 M103.38,140.82c-3.21-0.55-5.48,0.42-12.12,0.17
	 M102.96,139.54c-3.95,0.47-7.95,0.47-11.9,0 M90.94,138.42c-1.29-2.43,1.33-8.8,0.48-23.14 M90.99,140.46
	c-0.94-5.14-0.63-11.92-0.27-25"/>
<path class="st3" d="M108.63,126.32L108.63,126.32 M108.63,126.32L108.63,126.32 M107.71,132.97c2.2-2.03,4.13-4.35,5.73-6.88
	 M108.43,132.88c1.5-2.51,3.59-4,4.79-5.94 M106.67,139.51c3.09-2,6.48-7.89,13.35-11.94 M108.4,138.63
	c3.41-4.35,6.79-7.73,10.73-13.17 M109.27,141.46c4-4.49,8.41-6.74,13.58-11.72 M110.26,143.33c4.54-4.64,7.51-11,13.47-15.23
	 M116,141.69c3.4-1.36,4.11-4,6-6.3 M115.81,141.83c2.17-2.59,4.56-5,7.13-7.2"/>
<path class="st4" d="M108.41,127.08c4.43-0.61,8.91-0.79,13.38-0.55 M107.79,127.04c4.27-0.18,8.55-0.12,12.81,0.19 M120.7,126.23
	c-0.42,5.87,1,9.78,0.94,12.61 M120.56,126.84c0.78,4.23-0.15,7.46,0.77,12.7 M120.91,140.03c-3.41,0.77-8.15,0.16-13.12-0.21
	 M120.08,139.82c-4.66-0.11-8.9,0.44-11.26,0 M107.47,139.45c0.77-3.83,1.04-7.75,0.79-11.65 M107.77,140.73
	c0.38-3.23-0.1-6.48,0-14.14"/>
<path class="st3" d="M125.65,119.91L125.65,119.91 M125.65,119.91L125.65,119.91 M125.15,125.81c1.41-1.47,2.47-3.22,5.19-5.08
	 M125.79,126.19c1-1,2-2.57,5.18-5.78 M125.26,131.74c4.21-4,7.5-10.21,10.38-12.33 M126.41,132.72c2.78-4.56,6.14-8.73,10-12.42
	 M124.15,137.51c4.29-2.17,9.69-7.6,15.85-15 M125.07,139.16c5.42-5.15,10.19-10.95,14.22-17.25 M128.2,143.18
	c4.82-4.63,8.61-10.31,12.12-13.78 M127.07,142c4.09-4.64,8.54-7.24,12.48-13.68 M132.75,143c2.07-3.37,4.09-5.82,6.44-9.39
	 M133.01,142.52c1.76-3.08,4.28-4.59,6.81-9.2"/>
<path class="st4" d="M124.87,118.9c5.3,0.32,11.24,1,12,1.78 M125.96,120.01c2.87-0.44,4.79-0.8,12.21,0.56 M136.56,119.94
	c2.17,4.29,0.73,9.74,3.11,18.55 M138.88,119.89c0.06,4-1.52,9.27-1.82,19.69 M138.33,140.53c-2.91-1.43-7,0.48-11.81-1
	 M138.33,140.32c-5.45,0.28-10.55,0-13.26,0.31 M126.46,139.27c-2.59-2.84-2.57-8.53,0.6-17.32 M124.76,140.95
	c-0.14-7.65-0.24-14.12,1-20.32"/>
<path class="st3" d="M143.15,121.87L143.15,121.87 M143.15,121.87L143.15,121.87 M143.46,128.14c1.78-2.42,2.82-3.69,4.41-6.06
	 M142.62,128.25c2.15-1.68,4.08-3.62,5.76-5.77 M141.04,134.85c3.94-4.12,9.86-9.17,11.73-14.1 M143.08,134.05
	c4.06-4.53,8-8.16,11.55-12.53 M142.32,138.91c5.22-2.49,8.74-8,13.68-14 M143.25,141.13c6.22-6.57,10-12.71,14.55-17.67
	 M147.8,140.28c3.54-3.42,7.76-9.07,8.16-9.39 M149.05,139.27c2.58-3,5.46-6.78,8.39-9.36 M153.39,140.74
	c0.46-1.48,1.18-1.62,3.68-4.72 M153.52,140.44c0.91-1.43,1.96-2.77,3.13-4"/>
<path class="st4" d="M143.55,122.73c1.69-1.41,3.74-1.91,10.52-0.28 M142.63,121.91c4.21,0.65,8.63,0.06,12.31-0.24 M153.99,122.77
	c-0.47,6.48,0.95,14.1,1.27,16.31 M155.26,121.43c-0.28,4.58,0.31,9.27,0.18,19.27 M154.66,140.35c-2.53,0.79-4.67-0.51-12.56-0.7
	 M154.96,140.37c-3.08,0.17-5.58-0.09-12.62-0.77 M141.79,139.76c2.44-5.12,0-14.66,1.45-16.41 M143.24,139.46
	c-0.52-3.25,0.4-9.07-0.23-17.3"/>
<path class="st3" d="M159.96,117.94L159.96,117.94 M159.96,117.94L159.96,117.94 M159.74,123.94c2.82-1.79,3.25-4.23,6.67-6.24
	 M160.63,123.81c1.29-1.7,2.7-3.65,4.7-6.6 M158.86,130.91c4.69-4.14,8.69-10.59,11.3-13.35 M160.16,129.94
	c3.79-4.45,7.46-9.71,11.21-11.46 M161.26,134.8c4.78-6.19,10.21-11.07,12.6-16 M160.07,135.44c3.27-2.69,6.71-6.1,15-16.55
	 M160.93,142.89c5-8.67,10-13.25,14.72-17.79 M159.99,142.2c4.57-4.68,7.95-9.07,14.08-16.74 M166.85,140.27
	c2.34-3.07,5.3-5.61,8.68-7.47 M166.77,141.12c3.3-4.13,6.64-7.65,8-9.69"/>
<path class="st4" d="M159.16,117.22c4.35,1.38,9.02,1.38,13.37,0 M159.71,117.78c5.39-0.17,9.84-0.4,12.23-0.4 M170.53,117.6
	c2.21,6.68,1.23,14.42,3.28,20.74 M173.42,117.79c-2.44,7.17-1.68,13-1.52,22.07 M171.54,140.55c-3.07-1-7.6-1.86-11.52-0.41
	 M172.13,140.14c-4.12-1.1-9.52-0.43-11.79-0.28 M160.41,141.62c1.14-5.2,0-11.14-0.5-23.58 M160.68,139.4
	c-1.18-4.72-0.49-10.09-0.28-21.12"/>
<path class="st4" d="M28.77,28.6c1.19-3.59,4.12-7.87,7.11-13.37 M28.65,27.77c1.3-4.83,3.42-7.55,6.2-11.77 M34.29,14.46
	c-4.31,0.35-7.18,0.26-12.79,2.41 M34.99,15c-3.16,1.57-7.37,0.53-13,0.42 M21.86,14.33c2.05,4.16,2.28,6.08,6.62,14 M21.37,15.07
	c1.18,3.34,2.43,6.2,6.46,12.9"/>
<path class="st4" d="M78.82,51.6c1.1-1.85,2.73-7.51,5.29-12.1 M77.83,52.33c3.1-3.39,5.37-8.12,7.4-11.87 M84.98,40.92
	c-4.48,0.47-8.72-0.45-12.44,0.22 M85.09,40.65c-3.3,0.05-7.79,0-14.21-0.45 M70.81,40.2c1.92,2.22,6,5.53,6.61,11.61 M71.57,40.66
	c2.27,3.8,5.29,9.06,6.73,11.48"/>
<path class="st4" d="M99.01,70.55c-3.45-1.66-8.55-6-12-6.15 M98.01,70.96c-2.7-1.7-6.11-2.87-11-7.44 M85.71,63.77
	c1.87,5.79,0,9.26,1.58,12.43 M86.9,64c-1.32,4.58-0.57,8.82-0.43,12.82 M85.02,76.42c5.89-1.87,9.39-5.2,13.22-5.66 M85.67,77.21
	c4.07-1.75,7.68-3.07,12.7-6.71"/>
<path class="st4" d="M91.9,103c5.29-5.73,6.35-8.78,8-11.77 M93.7,102.51c1.91-3.85,3.42-8.68,6.14-11.7 M99.63,89.99
	c-3.12,0.47-5.82-0.24-12.2-0.43 M99.96,90.18c-3.48,0.34-7.46,0.13-14.17,0 M87.14,90.27c0.53,4.74,4.81,9.51,6.27,10.94
	 M86.16,90.56c2.3,3.73,4.57,5.68,7.39,11.57"/>
<g>
	<polyline class="st0" points="49.78,10.09 46.08,9.85 46.16,13.51 46.3,17.11 46.12,20.71 46.09,24.31 46.02,28.04 49.78,27.76 	
		"/>
</g>
<g>
	<polyline class="st0" points="20.85,172.14 24.41,172.14 24.62,175.67 24.54,179.26 24.47,182.86 24.6,186.46 24.49,190.07 
		20.85,189.95 	"/>
</g>
</svg>
