<?xml version="1.0" encoding="utf-8"?>
<!-- Generator: Adobe Illustrator 24.2.1, SVG Export Plug-In . SVG Version: 6.00 Build 0)  -->
<svg version="1.1" id="Layer_1" xmlns="http://www.w3.org/2000/svg" xmlns:xlink="http://www.w3.org/1999/xlink" x="0px" y="0px"
	 viewBox="0 0 420.56 143.28" style="enable-background:new 0 0 420.56 143.28;" xml:space="preserve">
  <style type="text/css">
	.st0{opacity:0.8706;}
	.st1{font-family:'Menlo-Regular';}
	.st2{font-size:9.4714px;}
</style>
<g transform="translate(5,13.188)">
	<text xml:space="preserve" class="st0 st1 st2">{&apos;setosa&apos;: (    sepal_length  sepal_width  petal_length  petal_width</text>
</g>
<g transform="translate(5,24.2378)">
	<text xml:space="preserve" class="st0 st1 st2">  13           4.3          3.0           1.1          0.1,</text>
</g>
<g transform="translate(5,35.2881)">
	<text xml:space="preserve" class="st0 st1 st2">  &lt;IPython.core.display.Image object&gt;),</text>
</g>
<g>
	<text xml:space="preserve" transform="matrix(1 0 0 1 5 46.3379)" class="st0 st1 st2"> &apos;versicolor&apos;: (    sepal_length  sepal_width  petal_length  petal_width</text>
</g>
<g>
	<text xml:space="preserve" transform="matrix(1 0 0 1 5 57.3877)" class="st0 st1 st2">  99           5.7          2.8           4.1          1.3</text>
</g>
<g>
	<text xml:space="preserve" transform="matrix(1 0 0 1 5 68.438)" class="st0 st1 st2">  67           5.8          2.7           4.1          1.0,</text>
</g>
<g>
	<text xml:space="preserve" transform="matrix(1 0 0 1 5 79.4873)" class="st0 st1 st2">  &lt;IPython.core.display.Image object&gt;),</text>
</g>
<g>
	<text xml:space="preserve" transform="matrix(1 0 0 1 5 90.5376)" class="st0 st1 st2"> &apos;virginica&apos;: (     sepal_length  sepal_width  petal_length  petal_width</text>
</g>
<g>
	<text xml:space="preserve" transform="matrix(1 0 0 1 5 101.5874)" class="st0 st1 st2">  104           6.5          3.0           5.8          2.2</text>
</g>
<g>
	<text xml:space="preserve" transform="matrix(1 0 0 1 5 112.6377)" class="st0 st1 st2">  121           5.6          2.8           4.9          2.0</text>
</g>
<g>
	<text xml:space="preserve" transform="matrix(1 0 0 1 5 123.6875)" class="st0 st1 st2">  116           6.5          3.0           5.5          1.8,</text>
</g>
<g>
	<text xml:space="preserve" transform="matrix(1 0 0 1 5 134.7373)" class="st0 st1 st2">  &lt;IPython.core.display.Image object&gt;)}</text>
</g>
</svg>
