<?xml version="1.0" encoding="utf-8"?>
<!-- Generator: Adobe Illustrator 24.2.1, SVG Export Plug-In . SVG Version: 6.00 Build 0)  -->
<svg version="1.1" id="Layer_1" xmlns="http://www.w3.org/2000/svg" xmlns:xlink="http://www.w3.org/1999/xlink" x="0px" y="0px"
	 viewBox="0 0 200 200" style="enable-background:new 0 0 200 200;" xml:space="preserve">
<style type="text/css">
	.st0{fill:#FFFFFF;}
	.st1{fill:none;stroke:#000000;stroke-width:0.5;}
	.st2{fill:none;stroke:#000000;}
</style>
<rect class="st0" width="200" height="200"/>
<g>
	<path class="st1" d="M10.68,30.48L10.68,30.48 M10.68,30.48L10.68,30.48 M9.8,36.23c2.6-0.31,3.28-2.67,5.4-4.89 M10.08,37.1
		c2.14-2.14,3.44-4.3,5.73-6.44 M10.55,42.44c2.45-1.6,2.84-3.47,5-6.37 M11.17,42.22c1.34-0.91,1.99-2.03,5.18-5.86 M16.16,36.11
		c1.78-1.2,4.13-4.88,5.53-5.5 M16.23,36.72c0.47-1.72,1.85-2.57,5.47-6.37 M10.41,49.59c3.03-4.02,5.01-5.58,5.41-8.18 M10.41,48.5
		c1.89-0.67,2.85-2.39,6.15-6.27 M21.91,36.05c0.58-2.14,2.87-3.21,4.27-5.59 M21.69,36.23c1.54-1.73,2.45-3.76,4.69-5.36
		 M11.05,54.8c0.36-1.24,2.84-3.72,4.67-6.34 M10.04,55.38c1.72-2.19,3.14-3.6,5.92-7.27 M26.56,36.32
		c2.23-1.55,2.39-3.19,6.01-5.21 M26.77,36.09c1.41-1.41,3.34-3.65,4.78-5.46 M10.78,61.8c1.64-2.75,2.59-3.49,5.03-7.1 M11.11,60.6
		c0.55-1.64,2.39-2.63,5.19-6.11 M32.19,35.54c1.68-0.46,3.32-2.8,4.12-4.36 M32.17,35.77c1.49-1.52,3.42-3.54,4.49-4.88
		 M9.74,67.07c2.29-3.32,5.89-5.1,6.78-5.94 M10.78,67.61c1.51-2.05,2.98-3.43,5.47-6.92 M36.55,36.38
		c2.65-1.65,2.91-3.68,5.37-6.53 M37.53,36.38c1.01-1.61,2.64-3.12,5.42-5.79 M10.6,73.19c2.49-2.54,4.6-4.24,4.87-6.17
		 M10.95,72.79c1.5-1.44,2.03-2.88,5.15-5.63 M42.87,35.57c1.82-1.7,2.23-2.77,5.08-4.41 M43.05,36.17
		c1.39-1.91,3.13-4.06,4.31-5.76 M10.09,78.51c1.2-1.36,3.38-3.1,6.66-6.41 M10.7,79.16c1.24-1.91,3.06-3.91,5.7-6.97 M47.9,36.85
		c0.94-2.71,3.71-3.52,5.72-6.36 M48.15,36.58c0.84-1.09,2.36-2.91,5.07-6.6 M10.79,85.91c1-3.46,4.73-5.59,6.03-6.12 M10.14,85.4
		c2.59-2.27,4.9-4.88,6.04-6.77 M53.84,36.22c2.13-1.71,3.71-4.34,4.13-4.94 M53.76,36.1c0.89-1.12,1.35-2.14,4.39-5.54
		 M10.96,91.55c1.56-2.32,2.59-4.09,4.89-6.25 M10.92,91.18c1.58-1.22,3.12-3.42,5.43-6.41 M58.45,36.37
		c1.9-1.31,2.74-2.86,5.54-5.88 M58.94,36.6c0.76-2.08,3.03-3.86,4.95-6.36 M9.66,97.69c2.22-0.76,4.91-2.92,5.77-6.06 M10.51,97.76
		c0.82-1.23,1.87-2.68,5.84-6.58 M64.12,36.5c1.39-1.64,2.77-4.26,5.33-6.3 M64.44,36.18c1.57-2.04,2.78-3.91,4.51-5.77
		 M11.27,102.84c1.67-2.05,3.25-3.86,4.35-4.89 M10.72,103.77c1.81-2.23,2.96-4.25,5.44-6.54 M69.12,35.78
		c1.99-1.77,2.59-2.12,4.72-4.91 M69.1,36.39c1.85-1.71,2.74-3.63,5.1-6.4 M9.98,109.65c1.93-2.29,4.82-3.64,5.75-6.41
		 M10.12,109.67c2.5-2.23,4.32-4.55,6.65-6.26 M75.22,36.16c0.94-1.61,1.87-2.01,4.1-5.76 M74.82,35.97
		c1.15-1.27,2.07-2.79,4.77-5.64 M11.08,115.63c1.13-1.71,3.05-2.88,4.71-5.93 M10.24,116.57c1.86-1.52,2.48-3.5,6.05-7.54
		 M80.38,36.45c1.84-1.3,2.29-3.19,4.65-5.61 M80.09,36.63c1.83-2,3.46-3.7,5.25-6.5 M11.23,122.67c0.88-3.63,3.19-5.14,4.56-8.28
		 M10.29,121.99c2.09-1.62,3.58-3.36,6-6.92 M85.52,35.73c1.87-1.81,2.52-4,4.51-5.63 M85.47,36.14c0.95-1.79,1.91-3.38,4.88-5.64
		 M10.87,128.58c1.88-3.78,4.11-5.75,5.95-6.19 M10.55,128.24c0.93-1.87,2.64-3.09,5.35-6.36 M90.8,36.18
		c1.2-2.24,2.57-3.06,5.27-6.21 M90.47,36.49c1.33-1.88,2.82-3.09,4.88-6.65 M10.81,133.41c1.26-1.62,3.23-2.63,5.71-5.18
		 M11.17,134.1c1.06-1.53,2.5-3.43,5.3-6.09 M96.04,35.61c1.24-2.39,3.82-4.5,4.9-4.38 M96.24,35.64c0.81-0.79,1.55-2.14,4.72-4.81
		 M10.67,140.25c1.75-2.41,4.94-6.07,6.69-6.16 M10.52,140.57c2.47-2.39,4.45-4.86,6.04-7.11 M101.21,36.27
		c1.73-2.69,4.29-4.13,5.76-6.1 M101.25,36.51c0.89-1.7,1.91-2.88,4.7-5.97 M10.52,145.94c1.21-1.16,1.88-1.81,5.13-6.38
		 M10.64,147.04c1.75-3.17,3.72-5.09,5.94-6.69 M105.92,36.93c1.91-2.22,3.46-4.85,5.04-6.07 M106.22,36.52
		c1.2-1.8,2.5-3.07,5.01-6.06 M12.56,150.91c0.7-3.82,3.67-4.37,7.84-10.6 M11.71,151.54c2.38-3.17,5.29-6.54,9.6-10.64
		 M111.26,36.46c2.82-2.59,4.5-4.06,5.18-6.61 M112.09,36.5c1.47-1.95,2.84-4.17,4.73-6.73 M18.67,151.4
		c1.05-5.89,4.54-8.75,9.38-11.88 M17.12,150.4c3.37-3.41,7.25-7.03,9.7-9.98 M116.94,37.26c1.34-3.14,2.89-4.7,5.17-6.36
		 M116.51,36.62c2.02-2.63,3.62-4.41,5.73-5.73 M22.87,150.84c0.89-4.48,4.18-5.62,8.26-10.52 M21.95,150.23
		c3.38-2.92,7.05-6.61,10.43-10.34 M122.87,36.58c0.53-3.49,3.17-5.28,4.96-6.96 M122.28,36.34c2.09-2.46,4.47-4.61,5.15-6.24
		 M29.65,151.38c1.43-3.22,1.51-7.66,7.12-11.73 M28.16,150.07c2.95-2.56,5.68-5.41,9.57-10.82 M127.73,36.58
		c0.82-2.62,3.87-5.17,4.24-6.02 M127.6,36.76c0.55-1.46,1.79-2.56,5.06-6.42 M33.16,151.16c2.93-3.42,2.77-3.64,9.37-11.78
		 M33.49,151.51c1.18-2.8,3.35-4.51,8.8-11.93 M133.28,35.72c2.33-2.69,3.44-4.78,5.45-5.64 M133.01,36
		c1.78-2.78,4.01-4.5,4.89-5.84 M37.99,149.44c2.39-1.71,7.17-5.68,9.98-9.62 M38.92,150.95c2.25-2.52,4.26-5.08,9.16-10.63
		 M138.44,36.41c0.5-2.12,2.26-3.14,5.47-5.93 M137.59,36.44c2.16-1.89,2.97-3.44,5.37-6.31 M43.97,149.99
		c3.93-2.81,7.09-5.86,9.07-9.54 M44.05,151.01c3.1-2.93,6.03-6.98,9.61-10.71 M143.38,35.28c2-0.78,2.81-1.74,5.67-4.56
		 M143.47,36.11c2.08-2.2,3.88-4.21,5.13-6.02 M49.26,149.49c5.29-3.19,8.87-6.4,8.54-8.33 M50.2,150.92
		c1.58-2.98,4.13-5.8,8.47-10.91 M148.35,37.07c1.36-2.98,3.88-5.86,5.64-6.77 M148.51,36.53c1.76-2.01,3.47-3.86,5.48-6.52
		 M54.18,151.71c2.5-6.16,7.7-7.81,9.29-10.33 M54.55,150.98c2.99-2.65,4.29-5.14,8.92-11.23 M153.97,36.69
		c1.57-3.57,2.87-5.38,4.83-5.93 M154.24,36.4c1.42-1.57,2.31-3.33,5.57-6.32 M58.3,150.68c3.68-3.68,9.45-8.32,10.16-10.86
		 M59.11,151.33c4.15-3.9,8.63-9.02,10.81-11.34 M158.57,35.74c1.66-1.22,2.83-1.92,6.49-4.79 M159.18,36.75
		c1.85-2.71,3.78-4.6,5.24-6.31 M66.14,149.43c0.25-0.62,2.64-2.98,7.17-8.05 M65.4,150.89c0.83-3.18,2.78-4.65,9.43-10.11
		 M165.13,35.52c1.8-1.31,3.85-3.99,4.28-6.15 M165.08,36.4c0.96-2.14,2.33-3.5,4.8-6.73 M70.62,152.14
		c2.35-3.72,5.55-6.93,7.42-10.5 M69.99,150.87c2.55-2.64,4.36-4.09,9.48-10.71 M169.37,36.79c2.94-3.36,4.92-5.5,5.39-6.04
		 M170,36.15c2.01-2.46,4.14-4.39,5.33-5.48 M75.28,152.07c3.23-5.52,6.63-6.24,10.96-10.78 M75.72,150.39
		c2.59-3.5,6.41-8.36,9.18-10.35 M174.84,35.51c2.81-2.36,5.17-3.79,5.61-5.47 M175.8,35.97c2.06-2.46,3.57-4.85,4.98-5.77
		 M79.93,150.98c3.78-2.16,5.66-5.74,9.6-10.03 M80.13,151.61c3.07-3.83,6.07-6.87,9.99-10.62 M180.44,36.12
		c1.93-1.76,3.41-2.88,5.14-5.6 M180.5,36.67c0.8-1.51,1.93-3.07,5.46-6.61 M87.38,151.44c2.94-4.43,6.43-6.99,7.55-12.04
		 M86.9,150.49c1.97-2.66,5.58-6.21,9.15-10.67 M185.9,36.31c1.38-1.13,3.04-2.23,4.22-4.74 M185.33,36.34
		c1.86-1.28,3.64-3.09,4.75-4.92 M190.08,31.41L190.08,31.41 M190.08,31.41L190.08,31.41 M90.03,150.12
		c3.62-3.49,7.1-5.25,10.46-9.07 M91.99,150.58c1.36-2.13,4.68-4.67,8.24-9.69 M186.09,41.82c0.51-1.37,2.34-2.92,3.76-3.79
		 M185.86,42.11c1.01-0.99,2.72-2.57,4.13-4.38 M189.35,38.3c1.07-1.19,1.66-1.98,3.77-4.59 M189.83,37.93
		c1.09-1.45,2.09-2.42,3.25-3.69 M95.9,150.18c5.13-3.06,6.11-3.98,10.55-10.74 M97.11,150.86c2.4-2.72,4.64-5.74,9.36-11.48
		 M185.35,49.31c1.47-1.69,2.12-2.94,4.14-4.9 M185.67,49.03c1.59-1.92,3.2-3.62,3.77-4.64 M189.4,44.31
		c0.78-0.39,1.53-1.76,3.79-3.66 M189.76,44.22c0.48-0.94,1.64-2.1,2.93-3.58 M101.46,150.98c1.86-4.36,4.5-4.78,8.6-10.26
		 M101.63,150.62c2.98-2.57,5.01-5.77,9.16-10.35 M184.99,55.29c1.06-0.62,1.43-2.02,3.89-4.83 M185.58,55.2
		c1.01-1.21,2.54-2.49,3.61-4.43 M188.93,50.95c0.77-0.97,1.72-1.67,3.92-3.72 M189.22,50.76c1.1-1.2,1.88-2.84,3.31-3.76
		 M108.61,149.39c1.98-2.04,3.04-4.93,7.23-10.24 M107.5,150.33c2.79-3.6,5.23-5.66,9.64-9.94 M186.25,60.51
		c0.23-0.84,1.25-1.1,3.05-3.45 M185.92,60.89c0.85-0.84,1.53-2.19,2.92-3.7 M189.59,56.76c-0.06-1.05,1.43-1.94,3.96-3.93
		 M188.87,56.89c1.26-1.63,3.04-2.82,4.16-4.27 M112.73,149.68c2.65-3.97,6.21-7.75,8.22-8.32 M112.79,150.76
		c1.82-2.16,4.3-5.51,9.16-9.97 M185.75,67.53c0.58-1.5,1.53-3.1,2.71-3.93 M185.6,67.18c0.77-1.16,1.74-2.21,2.93-3.68 M188.6,63.3
		c0.74-0.47,1.54-1.51,4.5-4.61 M188.85,63.44c0.78-1,1.45-1.94,3.97-4.63 M119.28,150.5c2.16-2.58,4.67-4.62,8.29-10.34
		 M117.77,151.16c4.53-4.08,7.46-8.51,10.17-11.75 M185.55,72.64c1.28-0.73,1.47-1.26,2.98-2.86 M185.69,72.81
		c1.32-1.09,2.06-2.22,2.62-3 M188.62,70.24c0.55-1.6,1.94-2.95,4.22-4.73 M188.72,69.58c0.68-1.34,2.32-2.49,3.8-4.57
		 M122.04,150.26c3.69-2.11,4.81-5.49,10.57-9.29 M123.12,150.28c1.35-1.49,4.53-3.91,9.28-9.31 M186,79.03
		c0.11-0.48,0.68-1.8,3.15-3.25 M185.49,79.34c1.09-1.12,1.85-2.09,3.27-4.07 M188.88,76.01c0.22-1.28,1.16-1.73,3.82-4.86
		 M189.13,75.35c0.8-1.08,1.93-2.58,3.78-4.23 M128.36,149.52c2.4-0.53,4-2.91,8.84-8.75 M128.73,150.99
		c2.3-3.41,4.51-5.37,8.18-10.78 M185.95,84.57c1.22-0.49,1.43-1.32,3.02-2.39 M185.85,84.73c1.19-0.89,2.24-2.05,2.78-2.93
		 M189.23,82.08c1.24-2.07,1.36-2.82,3.79-4.53 M188.85,81.95c0.54-0.92,1.23-1.72,3.59-4.52 M135.19,150.03
		c-1.04-0.27,0.74-3.47,8.41-8.79 M134.19,151.22c2.54-2.8,3.47-4.86,8.42-11.61 M185.38,91.4c0.77-1,1.8-1.66,2.72-2.89
		 M185.8,91.09c0.41-0.57,1.07-1.17,2.41-3.06 M188.68,88.46c1.5-1.75,2.6-3.77,3.42-4.24 M188.34,88.41
		c0.61-0.77,1.84-1.78,3.95-4.45 M138.4,150.46c2.21-1.69,5.86-4.31,10.48-9.29 M139.35,151.12c3.65-3.87,7.38-7.77,9.32-11.06
		 M186.3,97.19c0.47-1.05,0.81-1.82,1.75-2.39 M186.25,96.97c0.64-0.95,1.38-1.65,2-2.43 M188.6,94.01c0.21-0.81,1.54-1.44,4.6-4.06
		 M187.92,94.69c1.37-1.5,2.29-3.11,4.94-5.42 M143.34,150.93c2.79-2.57,6.22-4.02,9.51-10.44 M145.1,150.44
		c2.54-3.04,4.81-5.18,8.56-10.36 M186.13,103c0.46-0.17,0.54-1.02,1.99-1.99 M185.79,103.29c0.59-0.4,0.91-0.98,2.02-2.12
		 M188.06,100.34c1.19-1.48,2.13-2.92,4.02-5.28 M188.15,101.25c0.59-1.51,1.63-2.87,4.13-5.27 M149.28,150.73
		c3.58-2.01,3.64-3.97,9.37-10.99 M150.49,150.08c2.29-2.95,5.31-6.17,8.05-9.43 M186.38,109.11c0.4-0.68,0.93-1.26,1.39-1.55
		 M186.26,109.02c0.39-0.35,0.72-0.71,1.28-1.65 M187.33,106.96c0.99-0.86,2.11-1.61,4.59-5.02 M187.65,107.65
		c2.06-1.88,3.79-3.92,4.64-5.19 M154.33,150.77c3.26-2.91,7.88-6.76,10.7-10.3 M154.95,150.51c2.24-2.78,5.76-5.44,8.73-10.57
		 M186.22,115.52c0.07-0.67,0.55-1.38,1.06-1.89 M186.01,115.28c0.3-0.44,0.89-0.88,1.24-1.42 M186.58,114.59
		c2.93-1.7,3.86-3.85,6.12-6.23 M187.71,114.17c1.57-3.04,3.68-5.48,4.69-6.49 M161.77,150.3c0.93-3.42,4.43-4.85,7.02-8.47
		 M160.67,150.87c3.71-4.06,6.34-6.97,8.35-10.59 M185.6,121.94c0.81-1.01,1.72-2.08,2.12-2.76 M185.8,121.8
		c0.68-0.9,1.57-1.84,1.97-2.47 M187.35,118.92c1.07-1.67,3.34-2.63,4.95-5.36 M187.94,119.58c1.64-2.31,3.52-4.55,4.46-5.6
		 M165.11,150.82c2.39-3.04,6.44-6.42,11.01-10.07 M165.51,150.32c1.75-2.03,4.82-4.47,10.19-9.93 M186.21,127.24
		c0.21-0.28,0.73-0.94,1.33-1.31 M186.09,127.33c0.41-0.42,0.79-0.83,1.43-1.41 M187.22,126.47c2.27-2.82,3.07-4.33,5.1-5.59
		 M187.81,125.73c0.8-1.67,2.42-3.36,3.98-5.28 M170.49,152.45c3.16-3.22,4.67-6.47,8.34-12.13 M170.36,150.49
		c2.34-2.45,4.27-4.49,9.1-9.74 M185.94,133.57c0.43-0.21,0.93-0.72,1.23-1.22 M185.99,133.76c0.32-0.39,0.43-0.6,1.21-1.48
		 M187.13,132.74c2.41-2.14,4.35-4.56,5.8-6.24 M187.33,132.47c0.67-1.09,1.89-3.1,5.25-6.34 M174.67,151.44
		c5.52-6.21,9.63-8.52,19.28-17.27 M176.21,151.32c4.92-6.36,11.56-12.12,16.56-18.9 M182.23,151.48c2.17-3.98,4.4-5.51,8.91-13.03
		 M181.44,151.15c2.93-3.17,4.29-6.77,10.8-12.25 M187.63,150.3c0.56-1.19,2.29-2.82,4.68-5.94 M186.76,150.4
		c1.75-1.3,3.49-3.46,5.61-5.48"/>
	<path class="st2" d="M188.86,30.5c-55.61,0.67-114.35,1.8-176.9-1.15 M187.23,30.15c-67.05,0.41-134.71,1.43-174.4,0.77 M12,30
		c-2.57,0.74-0.06-0.92-3.76,1.24 M11.63,28.13c-2.07,3.2-2.08,1.24-0.47,1.76 M10.25,33c3.46,21.88,3.28,48.47,0.12,115.33
		 M9.94,32.65c-0.24,37.65,0.13,75.28,0.79,116.11 M10,148c-1.94-0.53,2.27,0.99,3.26,2.81 M9.5,146.73
		c1.47,3.04,2.17,4.48,3.27,4.78 M10.23,151.42c48.47,5.19,98.64,2.68,175.86,0.35 M11.67,150.85c39.69,2.26,78.72,2.02,177.06-1.69
		 M188,150c-0.59-0.46,2.75-0.25,2.72-2.26 M189.48,149.97c-0.87-0.17,1.05-0.59,1.82-2.24 M191.9,148.65
		c-2.94-37.59-1.96-69.7-2.78-117.61 M189.44,148.95c2.1-38.93,0.74-75.65,0.25-116.71 M190,32c-1.98-1.48,0.86-3.38-3.35-2.72
		 M190.86,31.12c0.67-0.46-0.45-2.22-5.11-3.3 M188,30L188,30 M188,30L188,30 M185,138c0.92,2.4,0.17,2.29-1.39,1.03 M186.46,138.9
		c-3.35-0.49-1.77,3.08-4.85,0.16 M181.93,138.28c-54.99-0.28-114.15,1.88-164.42,0.87 M183.1,139.4
		c-43.65,1.57-88.24,1.65-166.33,0.29 M17,140c-1.18,1.8-1.69,0.16-1.26-3.62 M17.03,138.97c-0.06-0.23-0.27,2.38-3.62,0.65
		 M15.96,138.79c1.45-35.21,1.79-68.38-1.74-100.5 M15.09,138.82c-3.52-33.82-2.77-66.89,0.52-102.82 M15,37
		c1.48-0.1,0.33-3.65,3.81-3.86 M13.44,38.84c2.68-3.36,0.68-2.07,1.82-4.8 M16.68,33.5c55.64-6.35,107.06-3.99,167.51,3.14
		 M16.09,35.56c61.31,1.4,119.6,2.26,166.81-0.86 M183,35c2.33,0.62,2.4,0.25,0.17,2.13 M182.96,35.48c2.28-1.46,0.1,1.98,4.15,1.58
		 M185.27,37.21c-0.31,38.87,0.88,75.15-0.82,100.52 M184.12,37.47c1.49,37.21,0.93,73.36-0.1,101.08 M185,138L185,138 M185,138
		L185,138"/>
</g>
<g>
	<path class="st1" d="M79.83,154.2L79.83,154.2 M79.83,154.2L79.83,154.2 M80.25,159.47c0.79-1.41,2.24-1.76,4.23-4.25
		 M80.38,160.19c1.44-1.92,2.77-3.61,4.7-5.32 M81.97,165.93c0.87-2.07,3.63-3.92,9.54-10.54 M81.13,165.4
		c1.65-2.36,2.88-4.65,9.04-11.77 M82.36,167.98c7.31-5.19,10.51-10.71,12.6-12.1 M83.19,167.35c5.53-4.69,9.26-9.49,12.43-12.88
		 M87.04,168.02c4.08-4.95,9.04-6.68,15.21-12.96 M88.45,167.72c3.19-4.67,7.73-8.85,12.18-13.72 M94.56,167.88
		c3.65-5.36,7.98-8.86,12.85-13.53 M94.03,168.21c3.83-5.04,7.02-8.04,11.74-13.58 M99.9,168.93c3.33-4.81,8.2-9.84,12.28-13.98
		 M100.14,167.92c1.73-2.86,4.64-5.34,10.73-13.83 M103.58,166.26c4.62-5.26,7.88-7.68,13.66-12.11 M104.69,167.06
		c2.25-4.31,6.47-6.62,13.08-15.75 M108.79,166.77c4.32-2.42,9.75-7.71,13.67-10.72 M109.58,168.4c2.93-3.39,5.88-7.43,12.68-13.24
		 M116.31,168.61c1.45-2.69,2.23-5.69,5.81-7.43 M115.57,168.43c2.05-3.11,4.08-5.35,6.22-7.04"/>
	<path class="st2" d="M118.77,168.33c-10.29-4.03-23.14-1.57-38.47,0.66 M117.37,167.34c-8.91-1.3-19.26-2.51-34.39-0.92 M82,167
		c-2.63-0.59-3.93-0.65-1.74-0.59 M80.5,166.03c-0.76,0.4-0.07,2.37,1.16-3.21 M79.91,164.97c0.35-3.54-0.49-8.46,0.5-10.15
		 M80.33,165.16c0.33-3.15-0.42-6.69-0.61-10.92 M80,154c-1.22,0.45-0.33-3.48,3.78-3.4 M79.49,155.35c2.32-4.44,0.4-5.34,1.64-3.59
		 M82.53,150.26c12.88,2.19,26.45,0.26,36.19,3.41 M82.74,152.59c9.95-1.17,20.53-0.1,35.6-0.89 M118,152
		c2.76-1.43,3.69,2.08,1.95,3.37 M117.79,151.33c2.21,0.27,1.69-0.64,3.69,1.09 M119.14,153c1.05,5.07,1.58,8.95,1.28,11.38
		 M119.53,153.73c0.73,3.38,0.03,6.65,0.09,11.46 M120,165c-0.48,2.46,0.46,1.76-2.43,3.44 M118.37,163.92
		c2.22,2.97,1.39,3.67-2.05,3.5 M118,167L118,167 M118,167L118,167"/>
</g>
<g>
	<path class="st1" d="M70.09,170.9L70.09,170.9 M70.09,170.9L70.09,170.9 M72.42,174.11c0.8-1.05,2.12-2.11,2.54-2.48 M72.33,174.12
		c0.98-0.99,2.02-2.07,2.89-2.79 M77.21,174.38c0.92-0.36,2-0.95,3.11-2.51 M77.52,174.61c0.9-0.77,1.56-1.73,2.67-2.9
		 M82.93,174.12c0.86-1.05,1.52-1.38,2.87-2.52 M83.27,174.13c0.48-0.73,1.44-1.84,2.41-3.05 M87.93,174.81
		c0.94-0.87,1.28-1.49,2.44-3.57 M88.13,174.49c0.67-0.68,1.32-1.63,2.56-2.9 M93.34,174.38c0.92-0.77,1.67-1.41,3.14-3.32
		 M93.75,174.15c1-0.99,1.82-2.4,2.49-2.98 M98.31,174.89c0.9-1.13,1.68-1.91,3.09-3.23 M98.75,174.65c0.84-1.11,1.62-2.06,2.63-3.1
		 M104.66,174.21c0.43-0.39,0.91-1.64,1.96-3.08 M104.15,174.26c0.73-1.01,1.6-1.87,2.77-3.02 M109.23,174.56
		c0.96-1.05,2.37-2.49,2.95-3.28 M109.14,174.44c0.92-0.68,1.82-1.54,2.93-2.91 M115.13,174.06c0.14-0.53,0.98-0.67,2.13-2.86
		 M114.98,174.04c0.88-1.26,2.06-2.14,2.57-2.87 M120.04,174.7c0.72-1.2,0.8-1.84,2.27-3.35 M119.87,174.5
		c1.12-1.14,2.23-2.26,2.88-3.05 M125.87,174.39c0.53-1.16,1.73-2.5,3.16-3.61 M125.8,173.89c0.45-0.86,1.65-2.1,3.3-3.48"/>
	<path class="st2" d="M129.15,172.85c-13.49,4.04-25.57,1.86-57.31,2.27 M128.42,174.62c-18.58,0.7-38.81,0.34-55.64-1.38 M72,174
		c-3.02,0.93-1.64-2.29-2.36-0.06 M73.82,172.84c-4.64,1.1-4.61-1.49-2.62-1.76 M70.09,172.06c-0.12-0.28-0.19-0.67-0.02-1.08
		 M70.04,172.05c-0.05-0.3-0.08-0.53-0.05-1.05 M70,171c0.54,0.09,0.85-3.14,0.44-3.33 M68.78,171.19c1.38-1.49,0.81-0.69,4.52-4.36
		 M72.24,167.26c12.92-0.19,27.71,1.15,54.69,0.91 M72.69,169.42c16.19-1.88,31.49-2.13,54.93,0.13 M128,169
		c-0.57-1.35,2.35-0.05,1.45,2.67 M129.23,168.2c-1.96-1.29,0.18,2.98,2.56,1.38 M130.07,171.01c-0.12,0.17,0,0.52-0.15,0.91
		 M130.02,171.03c0.01,0.21-0.02,0.53-0.03,0.99 M130,172c-0.93,1.12-0.04,3.47-0.55,2.29 M131.23,172.85
		c-1-1.17-0.17,0.76-4.24,3.09 M128,174L128,174 M128,174L128,174"/>
</g>
<g>
	<path class="st2" d="M47.41,56.66c6.79,0.12,10.45-2.08,15.52-0.08 M46.41,55.79c6.75-1.98,13.05-0.64,16.92-1.45 M65.71,53.73
		c-1.49,9.51-1.61,16.54-0.02,18.23 M64.83,54.7c-0.12,4.12-0.69,8.82-0.63,18.26 M63.38,72.7c-6.05-1.08-12.38-1.48-18.7,0.85
		 M64.26,72.95c-4.62,0.09-11.28-0.61-18.53-0.15 M47.29,71.79c-2.61-6.13-3.07-13.87-2.77-15.61 M46.21,72.6
		c-0.78-5.98-1.06-13.74-1.02-18.29"/>
</g>
<g>
	<path class="st2" d="M47.16,79.38c3.13-1.36,12.08-1.31,17.97-1.76 M45.64,78.5c5.37-1.52,12.56-0.37,19.08,0.56 M65.44,79.33
		c-1.64,4.92-0.82,9.32-0.53,18.14 M63.5,78.81c-0.73,4.69,0.17,10.09,0.18,18.1 M62.65,97.5c-1.93-0.02-10.12,0.13-15.21-0.96
		 M63.81,95.82c-3.17,0.78-8.01,0.77-18.22,1.45 M46.2,97.69c0.72-7.46-0.3-9.61,0.5-20.59 M46.11,96.93
		c0.24-3.41,0.22-7.67-0.37-17.76"/>
</g>
<g>
	<path class="st2" d="M45.27,102.08c4.59-1.9,9.04-1.77,20.02,0.19 M46.52,101.51c4.47,0.97,10.15,2.05,17.66,1.12 M63.06,102.85
		c2.63,5.74,2.3,10.07,1.48,16.96 M64.01,101.4c-0.12,4.04,0.79,7.46-0.73,18.1 M65.32,119.93c-4.45,0.97-8.71-0.56-17.77-0.61
		 M63.52,119.93c-3.7,0.37-9.61-0.64-17.09-0.78 M45.75,120.38c1.08-7.37,1.73-12.99,0.04-19.78 M46.89,120.5
		c-0.35-5.25-1.16-9.71-0.3-19.14"/>
</g>
<path class="st1" d="M71.41,55.11L71.41,55.11 M71.41,55.11L71.41,55.11 M70.48,60.93c2.44-1.82,4.57-3.43,5.22-5.47 M70.84,61.52
	c1.31-1.59,2.98-2.57,5.61-5.67 M71,68.11c4.03-4.69,8.73-9.58,9.81-12.67 M72.06,67.52c3.84-4.63,7.66-9.85,10.5-12.97
	 M70.95,72.69c3.53-2.51,9.03-7.78,16.83-15.8 M71.49,72.68c3.88-4.11,7.06-7.47,15.54-17.79 M76.54,71.28
	c4.49-4.13,9.84-13,17.59-14.6 M77.27,73.22c2.7-4.44,7.25-9.8,15.83-18.37 M83.2,74.5c5-6.73,8.31-12.65,13.8-20.29 M81.89,74.08
	c1.81-5.6,5.41-8.71,15.31-18.59 M86.07,74.24c7.41-6.44,12.04-9.56,19.18-17.65 M87.15,73.7c6.71-5.28,10.58-11.29,15.9-18.69
	 M94.45,75.21c1.36-7.2,7.69-14.16,14.34-20.08 M91.63,73.05c5.05-3.62,9.12-7.97,17.65-17.88 M96.35,72.55
	c6.8-5.97,14.2-14.54,18.4-19.26 M99.05,73.3c2.57-4.4,5.82-8.37,15.15-18.74 M103.79,72.53c4.66-6.87,8.09-9.16,15.14-17.68
	 M103.97,73.52c5.05-7.3,11.01-13.11,13.99-17.21 M109.28,74.68c2.7-6.43,10.22-13.97,13.73-19.73 M107.27,72.92
	c5.27-2.27,8.56-6.78,16.27-16.62 M113.2,72.6c7.18-3.29,11.93-11.5,15.07-17.4 M113.96,74.24c3.8-5.83,8.63-9.61,15.21-19.45
	 M117.34,74.75c4.84-6.99,11.18-12.61,17.26-19.17 M118.33,74.33c4.98-6.66,9.2-11.07,17.01-18.94 M124.45,71.99
	c1.21-2.31,4.65-6.1,17.7-18.42 M124.69,72.72c5.92-4.81,9.67-9.78,15.42-16.74 M128.65,73.82c6.08-5.23,10.77-13.53,15.2-18.04
	 M128.87,74.7c5.63-6.32,11.36-12.12,15.7-19.78 M133.53,72.98c6.62-7.57,11.76-11.66,15.74-19.42 M135.6,72.99
	c2.75-3.58,6.38-7.47,14.76-18.64 M140.39,71.83c5.03-3.69,5.72-5.54,16.66-13.58 M139.55,74.36c3.77-4.68,6.3-8.76,16.41-17.41
	 M145.97,71.98c3.86-2.73,4.11-3.73,9.92-10.4 M145.65,73.4c4.54-4.11,6.68-7.39,9.01-11.29 M150.33,74.15
	c1.1-1.47,2.84-2.24,4.35-5.57 M150.97,73.5c0.69-1.1,2.03-2.22,3.66-4.61 M71.81,66.67c-0.23-2.72,2.84-5.53,4.76-10.65
	 M71.41,66.8c1.68-2.34,2.02-5.26,4.5-11.8 M71.86,72.27c1.07-4.6,5.11-8.63,8.59-18.68 M72.16,73.28
	c1.43-5.96,4.53-11.49,10.53-17.9 M75.48,71.9c4.98-2.51,5.36-7.84,9.68-17.54 M77.55,73c1.59-5.99,5.19-10.68,9.89-18.13
	 M81.53,72.76c0.83-4.14,5.33-6.44,10-16.98 M81.38,74.34c3.38-3.86,4.98-8.1,11.48-19.11 M85.63,71.62
	c6.75-4.57,7.84-11.02,10.98-15.67 M88.25,72.59c1.2-2.76,2.47-7.85,9.76-16.64 M92.9,73.77c2.45-3.19,3.27-10.87,10.9-19.81
	 M92.84,73.45c2.49-5.51,7.56-12.62,10.22-18.57 M97.27,74.63c2.14-6.38,5.75-9.36,9.46-19.25 M97.57,73.82
	c4.42-7.53,8.89-13.63,11.34-18.75 M104.61,74.9c3.46-7.4,6.05-12.4,8.74-17.93 M102.59,73.2c4.27-4.5,8.43-11.02,11.94-17.72
	 M107.53,75.56c5.77-9.32,7.84-15.67,11.98-20.49 M108.3,74.38c2.72-5.25,3.6-8.11,10.14-19.84 M113.26,73.79
	c3.09-6.56,6.76-7.99,11.46-16.97 M113.91,74.39c3.03-6.06,5.2-10,10.42-19.31 M119.45,74.01c1.71-4.68,5.71-10.7,10.57-20.26
	 M119.54,74.65c1.69-4.71,5.42-10.4,9.04-18.84 M125.22,72.05c3.17-4.32,4.22-5.34,10.2-18.39 M123.75,72.97
	c3.22-5.34,6.57-10.47,11.32-17.68 M129.13,75.5c4.96-9.19,8.92-15.58,9.54-19.07 M130.41,72.87c2.37-5.8,8.03-13.83,9.41-16.81
	 M135.24,72.57c4.68-4.71,8.33-14.69,11.42-14.97 M135.06,73.33c0.65-2.68,4.08-6.84,10.22-17.89 M138.91,73.99
	c3.55-3.51,8.5-10.88,13.37-20.45 M139.55,73.18c2.92-5.92,6.37-10.18,11.88-17.26 M145.11,71.41c3.48-6.17,9.37-11.15,11.28-13.31
	 M145.95,72.97c2.56-6.32,7.07-11.79,9.07-15.8 M150.4,73.15c2.98-4.8,3.3-8.1,4.7-9.58 M150.23,73.77
	c1.33-3.24,2.93-7.04,4.14-11.08"/>
<path class="st1" d="M71.24,78.81L71.24,78.81 M71.24,78.81L71.24,78.81 M71.61,85.63c0.49-1.53,1.71-2.73,5-6.31 M70.89,85.21
	c1.2-0.95,2.15-2.75,5.1-5.76 M70.99,90.92c3.02-0.94,5.72-5.09,12.34-12.14 M71.06,91.5c3.47-3.87,7.58-8.37,10.41-12.8
	 M70.09,98.68c5.45-7.56,12.34-12.46,16.17-19.2 M71.68,96.72c1.71-3.4,5.89-7.31,15.98-17.52 M77.59,98.59
	c2.28-7.14,4.73-10.27,16.63-20.01 M76.24,96.99c4.08-6.93,9.15-10.95,15.71-17.85 M80.48,98.75c4.21-5.32,7.82-8.01,17.08-21.45
	 M80.97,97.43c5.04-3.76,8.24-8.32,16.19-17.7 M87.5,97.8c3.09-5.46,6.24-12.64,13.82-19.35 M87.48,97.81
	c5.05-5.46,10-10.96,14.92-19.81 M93.12,96.69c1.25-1.68,3.48-6.83,16.32-18.23 M92.99,97.24c5.11-6.57,11.88-11.95,14.83-18.14
	 M98.62,97.96c5.3-8.16,10.43-13.46,14.43-17.79 M97.54,96.44c4.6-4.56,7.33-7.02,16.13-16.8 M103.33,95.45
	c3.9-4.28,5.61-8.37,16.83-14.88 M103.75,97.49c1.69-3.8,6.13-6.8,14-19.08 M108.65,97.27c6.96-7.18,13.88-14.91,15.05-18.72
	 M107.84,95.92c6.43-5.3,11.7-12.69,16.63-17.72 M112.2,98.08c6.18-8.69,13.25-16.38,18.61-19.79 M113.88,97.32
	c4.31-8.04,10.78-14.78,14.94-18.34 M120.42,95.9c5.33-5.63,7.33-9.65,13.93-18.58 M119.22,97.23c6.62-7.34,11.83-15.1,16.05-18.79
	 M124.52,96.26c5.15-3.32,8.65-9.93,14.13-17.73 M124.12,97.64c5.66-8.19,13.47-15.22,15.2-18.53 M130.6,97.55
	c2.61-5.69,10.12-10.02,13.58-19.46 M129.16,96.67c4.13-4.02,8.9-8.48,15.92-18.5 M136.58,96.34c5.72-5.87,9.14-11.02,13.79-16.14
	 M135.43,96.9c3.62-5.59,9.63-9.07,16.08-18.33 M141.44,98.23c3.13-9.09,9.49-15.19,14.46-17.88 M141.04,97.22
	c4.19-6.82,9.12-12.19,14.01-16.87 M145.14,96.31c3-3.82,4.77-6.3,9.39-11.04 M145.75,97.37c2.31-4.08,5.37-7.65,9.29-11
	 M151.05,96.79c1.56-1.65,2.81-3.46,4.05-5.06 M151.09,96.31c1.73-1.04,2.8-3.2,4.3-4.3 M70.16,92.02c1.81-4.34,4.36-9.07,5.8-13.8
	 M70.83,90.36c3.06-4.55,4.37-8.59,5.99-10.83 M69.54,98.72c3.88-7.64,5.46-10.83,10.97-21.57 M70.9,96.38
	c3.77-6.42,8.35-12.75,10.69-16.78 M78.19,95.3c1.23-3.1,2.18-6.29,10.07-17.5 M76.4,95.87c2.28-2.02,3.96-6.17,10.49-16.96
	 M79.9,98.34c6.02-8,8.16-15.05,14.54-20.7 M82.14,98.04c2.34-6.93,7.45-12.84,9.9-19.31 M88.69,95.04
	c2.83-2.79,7.33-8.02,9.14-17.42 M86.52,97.28c3.66-5.52,7.02-10.15,10.12-17.19 M93.32,95.34c4.7-4.58,5.02-10.47,8.23-15.62
	 M92.83,97.59c3.9-4.85,6.36-9.42,9.42-18.52 M98.16,94.89c2.86-5.53,5.9-8.7,10.07-17.42 M97.34,96.25
	c3.29-5.29,7.26-10.87,10.5-16.84 M102.38,97.98c1.68-5.49,5.98-9.02,12.59-18.22 M103.14,96.67c2.84-3.87,4.61-9.2,11.42-17.78
	 M110.25,97.3c3.29-6.67,4.23-10.22,6.6-17.11 M109.21,96.32c2.74-5.32,5.89-11.74,9.56-17.22 M112.42,96.47
	c2.55-4.2,6.1-7.56,12.11-17.49 M114.51,97.37c0-4.71,2.31-7.2,9.69-18.64 M120.73,95.91c0.99-4.44,2.99-9.09,6.78-16.9
	 M118.45,97.24c2.71-5.12,3.76-8.25,10.91-18.06 M123.88,95.82c3.65-2.46,5.83-6.74,11.42-17.92 M123.56,96.77
	c4.43-6.79,8.1-13.03,11.38-18.95 M130.79,96.78c2.89-6.53,5.52-9.13,11.14-18.79 M129.44,97.06c5.13-6.11,7.98-12.92,10.5-19.05
	 M133.31,96.21c3.84-5.14,8.35-8.27,11.77-16.04 M134.81,97.59c1.56-6.24,6.15-10.96,11.32-19.33 M140.45,95.35
	c2.03-5.09,6.21-7.21,9.55-17.19 M140.32,95.77c4.26-4.58,8.04-12.41,11.12-16.83 M147.17,95.41c0.89-1.88,2.66-9.33,7.53-15.53
	 M146.43,96.39c2.23-5.24,5.63-12.07,9.32-15.44 M151.83,95.97c1.11-2.63,1.37-6.41,2.75-9.35 M151.04,96.69
	c1.32-2.82,2.77-7.15,4.17-10.6"/>
<path class="st1" d="M71.06,102.51L71.06,102.51 M71.06,102.51L71.06,102.51 M71.72,107.39c1.58-0.92,4.07-3.78,4.73-5.9
	 M71.63,108.53c1.29-2.26,3.23-4,5.47-6.39 M71.26,114.31c0.45-1.19,4.88-6.36,9.46-12.88 M70.86,114.84
	c3.73-3.52,6.62-6.76,11.6-11.77 M73.21,119.23c1.56-1.49,3.93-8.4,16.08-16.06 M71.77,119.21c6.61-6.17,11.94-13.61,16.41-17.24
	 M74.61,120.48c7.2-7.68,15.46-11.6,19.09-17.69 M76.15,120.75c4.53-6.27,7.57-10.48,15.42-18.96 M82.62,120.43
	c5.39-5.23,9.78-12.97,15.12-20.17 M82.12,120.64c4.42-6.55,10.58-12.88,14.87-18.98 M86.44,118.98c6.14-4.19,11.04-9.99,17.6-16.02
	 M86.25,120.43c7.24-5.33,11.08-11.09,16.67-17.59 M92.04,120.16c8.26-7.41,13.86-16.1,17.35-18.36 M92.52,119.95
	c4.15-4.13,7.47-6.91,15.98-18.29 M96.47,120.81c4.43-5.64,10.12-6.14,16.56-17.27 M98.26,121.45c4.02-6.59,8.84-13.17,15.63-18.91
	 M104.01,122.03c6.31-8.18,9.26-14.05,14.87-20.55 M104.22,120.54c4.82-6.19,10.96-14.52,14.97-19.29 M109.1,120.82
	c4.14-5.33,10.12-14.89,13.73-20.07 M108.89,119.92c4.94-5.32,9.98-10.23,14.91-17.91 M111.72,120.24
	c4.94-4.41,7.96-8.89,20.08-16.83 M113.33,120.04c5.35-6.28,11.48-11.14,17.13-17.48 M117.48,119.19
	c4.83-4.69,12.63-7.67,16.26-15.87 M118.92,119.88c4.64-5.3,9.45-11.31,15.7-17.86 M123.43,120.38c3.28-3.22,10.12-7.15,16.9-16.11
	 M125.02,120.8c5.06-6.35,9.36-12.45,14.11-17.8 M128.42,121.9c4.06-7.56,6.38-11.52,18.76-19.31 M129.06,119.9
	c3.56-2.45,6.51-7.79,16.12-17.94 M133.67,121.45c6.47-5.09,11.5-8.82,16.55-19.44 M135.42,120.33c4.13-3.27,7.27-8.58,14.86-17.72
	 M139.02,120.52c5.56-4.79,8.09-6.94,15.26-16.49 M139.37,119.76c4.11-3.82,7.73-7.37,16.25-16.9 M144.33,121.22
	c2.69-3.56,5.81-4.44,11.21-10.36 M145.24,120.85c2.65-2.87,5.86-6.62,8.72-11 M151.58,119.72c1.34-0.87,2.15-2.35,2.96-4.24
	 M151.18,120.45c0.54-1.29,1.99-2.03,4.01-4.94 M70.09,115.51c3.82-6.98,5.43-10.47,7.57-14.74 M71,114.62
	c2.51-4.36,3.49-8.78,5.7-12.17 M72.33,121.38c1.63-8.81,6.73-14.74,8.95-19.42 M71.17,121.05c2.17-4.57,4.8-10.88,9.84-18.94
	 M76.49,120.73c5.24-7.27,8.42-14.24,9.66-19.59 M76.8,120.37c2.42-5.44,6.18-11.64,10.12-17.3 M81.99,121.36
	c2.86-5.78,4.52-6.83,12.17-17.85 M82.21,120.2c3.43-7.39,6.98-13.5,10.63-16.89 M85.52,121.53c4.44-5.82,10.91-11.9,14.25-17.63
	 M87.86,120.59c0.35-4,3.78-7.89,9.25-18.04 M94.21,121.64c1.68-7.84,3.2-9.69,8.68-18.02 M92.92,120.38
	c4.23-7.29,7.06-12.85,10.04-18.81 M98.31,118.98c4.67-5.49,4.99-9.89,9.77-15.28 M98.28,120.83c1.79-5.69,4.98-10.86,9.49-19.42
	 M105.05,118.81c2.53-6.34,4.32-8.95,8.98-14.94 M102.85,120.55c4.73-8.62,8.68-15.07,10.67-17.32 M108.77,122.41
	c5.68-9.75,8.06-18.12,10.06-20.67 M107.68,120.09c2.85-3.93,5.83-8.28,12.03-18.26 M113.41,122.23c1.98-5.83,6.03-9.85,11.3-21.84
	 M113.59,121.1c3.03-4.24,4.93-8.3,10.97-19.55 M118.44,120.88c2.71-6.63,4.94-11.9,9.76-17.42 M118.37,120.47
	c5.91-6.84,9.81-15.08,12.47-17.87 M125.32,121.57c-0.03-5.77,1.43-10.7,9.3-18.52 M123.34,120.33c4.29-5.58,7.65-12.88,10.96-18.3
	 M128.05,121.06c5.16-5.44,8.14-11.81,12.78-19.02 M129.36,120.44c3.84-6.61,8-11.75,10.45-18.27 M135.23,119.95
	c4.48-4.26,4.17-7.68,8.73-17.38 M134.49,120.73c4.27-6.67,8-13.15,11.33-19.41 M139.66,122.19c6.11-8.35,8.59-15.7,9.7-20.91
	 M140.02,119.46c4.75-5.84,9.28-13.1,10.97-17.39 M146.23,122.49c4.1-7.23,5.45-14.51,8.4-18.58 M144.49,120.01
	c3.58-3.72,5.75-8.49,9.63-16.15 M150.1,120.42c1.86-3.8,2.68-4.74,5.43-10.68 M151.44,120.46c0.84-3.02,1.2-5.37,3.14-10.13"/>
</svg>
